# xmcd CD database file
#
# Track frame offsets:
#	150
#	10980
#	24750
#	49349
#	65327
#	80807
#	100847
#	112124
#	122604
#	139208
#
# Disc length: 2080 seconds
#
# Revision: 0
# Processed by: cddbd v1.5.2PL0 Copyright (c) Steve Scherf et al.
# Submitted via: CDex 1.40Beta9
#
DISCID=84081e0a
DTITLE=Ron Armstrong - Just Around the Bend
DYEAR=2005
DGENRE=Country
TTITLE0=Just Around The Bend
TTITLE1=Oh Suzie
TTITLE2=Little Red Rooster
TTITLE3=You Can't Catch Me
TTITLE4=Just Like A Woman
TTITLE5=Fences
TTITLE6=Listening to Jimmy Reed
TTITLE7=The Sun is Shinning
TTITLE8=J Marie
TTITLE9=Movin' to the Country
EXTD=YEAR: 2005 ID3G: 2
EXTT0=
EXTT1=
EXTT2=
EXTT3=
EXTT4=
EXTT5=
EXTT6=
EXTT7=
EXTT8=
EXTT9=
PLAYORDER=
